<?xml version="1.0" encoding="UTF-8" standalone="no"?>
<svg width="133px" height="59px" viewBox="0 0 133 59" version="1.1" xmlns="http://www.w3.org/2000/svg" xmlns:xlink="http://www.w3.org/1999/xlink">
    <!-- Generator: Sketch 39.1 (31720) - http://www.bohemiancoding.com/sketch -->
    <title>isl-logo</title>
    <desc>Created with Sketch.</desc>
    <defs></defs>
    <g id="Page-1" stroke="none" stroke-width="1" fill="none" fill-rule="evenodd">
        <g id="isl-ideas__landing-large1" transform="translate(-276.000000, -32.000000)" fill="#FFFFFF">
            <g id="Group-9">
                <g id="Group-11" transform="translate(276.000000, 32.000000)">
                    <g id="Group-7">
                        <g id="isl-logo">
                            <g>
                                <path d="M59.1564896,0.00873190328 L0,0 L0,44.7073448 L14.0998207,58.3291139 L86.2484472,58.3291139 L86.2484472,26.7842401 L59.1564896,0.00873190328 Z M20.7476384,48.2228091 L10.2880852,37.5698871 L10.2880852,10.3036459 L20.7476384,10.3036459 L20.7476384,48.2228091 L20.7476384,48.2228091 Z M52.1262981,37.8388297 C52.1262981,44.689881 49.0827396,48.2001061 42.3869108,48.2001061 L21.947915,48.2001061 L21.947915,37.5471841 L52.1262981,37.5471841 L52.1262981,37.8388297 L52.1262981,37.8388297 Z M52.1262981,36.3247177 L42.1811491,36.3247177 L42.1811491,34.2290609 L32.2720084,34.2290609 C25.5298833,34.2290609 21.947915,30.9545971 21.947915,24.086082 L21.947915,22.1790343 L31.893064,22.1790343 L31.893064,23.7507769 L42.3869108,23.7507769 C49.129036,23.7507769 52.1262981,27.5194664 52.1262981,34.3879815 L52.1262981,36.3247177 L52.1262981,36.3247177 Z M52.1262981,20.9565679 L21.947915,20.9565679 L21.947915,20.6526976 C21.947915,13.7859289 25.4818722,10.3036459 32.2257121,10.3036459 L52.1262981,10.3036459 L52.1262981,20.9565679 L52.1262981,20.9565679 Z M116.11189,54.2062851 C115.530908,54.6841522 114.740848,55.2343731 113.563163,55.8851988 C113.197986,56.0880749 113.096548,56.0880749 112.832809,56.0880749 C112.589358,56.0880749 112.386482,56.0677873 112.06188,55.9460617 C111.615553,55.7837608 110.905486,55.459159 110.763473,55.3780086 C110.357721,55.1548449 109.972256,54.6476546 109.749093,53.9781635 C109.607079,53.5724113 109.505641,52.8014821 109.505641,52.4160175 C109.505641,52.233429 109.525929,52.0305529 109.607079,51.7465263 C110.175132,49.6771901 111.55469,47.8918804 113.096548,46.248584 C113.441438,45.883407 114.27323,45.3356415 115.267323,45.3356415 C115.815088,45.3356415 116.099115,45.4167919 116.504867,45.5588052 C116.728031,45.6399557 117.15407,46.0051326 117.15407,46.8166371 C117.15407,47.3441149 116.930907,47.7904423 116.687455,48.277345 C116.484579,48.6830972 116.322278,48.9062609 116.038252,49.2308627 C114.638407,50.8132963 113.055973,52.5783184 111.331526,53.5318361 C111.230088,53.5926989 111.209801,53.6332741 111.209801,53.6941369 C111.209801,54.0187387 111.514115,54.4447785 111.696703,54.5462166 C111.919867,54.6679422 112.122743,54.7085174 112.325619,54.7085174 C112.670509,54.7085174 112.974823,54.627367 113.887765,54.1404644 C114.902525,53.5963176 115.629439,52.8709339 116.416276,52.2193455 C116.602299,51.7988465 116.877019,51.3059545 117.275796,50.7118582 C118.472765,48.9265485 119.588584,48.1150441 120.197212,47.6687167 C121.191305,46.9383627 122.246261,46.4108848 123.44323,46.0659955 C123.585243,46.0254203 123.747544,46.0051326 123.889557,46.0051326 C124.356172,46.0051326 124.761924,46.2282964 125.127101,46.5934733 C125.228539,46.6949114 125.39084,46.8774999 125.431415,46.9992255 C125.512566,47.2021016 125.695154,47.3846901 125.918318,47.3846901 C126.019756,47.3846901 126.32407,47.4049778 126.486371,47.6484291 C126.526946,47.7092919 126.526946,47.7295795 126.526946,47.7701547 C126.526946,47.8513052 126.486371,47.9324556 126.445796,47.9933184 C125.553141,49.2105751 124.477898,50.7321458 124.092433,52.2942918 C123.95042,52.8623449 123.808407,53.4709732 123.808407,54.0998891 C123.808407,54.627367 123.930132,55.1548449 124.234446,55.6214599 C124.254734,55.6620351 124.275022,55.7026104 124.275022,55.7431856 C124.275022,55.7837608 124.193871,55.9866369 123.848982,56.0272121 C123.727256,56.0474997 123.585243,56.1083626 123.463517,56.1083626 C123.159203,56.1083626 122.712876,55.9663493 122.59115,55.7026104 C122.327411,55.1142697 122.246261,54.525929 122.246261,53.9578759 C122.246261,53.3492476 122.327411,53.0043582 122.327411,52.9434954 C122.327411,52.8623449 122.327411,52.8420573 122.246261,52.8420573 C122.16511,52.8420573 121.982522,52.9840706 121.759358,53.2072343 L120.663827,54.2216148 C119.608871,55.2157077 118.959668,55.4997342 118.249601,55.7431856 C118.127876,55.7837608 118.00615,55.824336 117.925,55.824336 C117.701836,55.824336 117.458385,55.6823227 116.504867,54.9113936 C116.428255,54.8501042 116.212776,54.6383748 116.11189,54.2062851 Z M98.7904796,53.5342775 C98.7897692,53.5326641 98.7894003,53.5318362 98.7894003,53.5318362 C98.7894003,53.5318362 98.7734955,53.4912608 98.2865929,53.8361502 C97.4750885,54.4042033 97.2519247,54.525929 96.8055973,54.525929 C96.4607079,54.525929 96.4404203,54.0593139 96.4404203,53.8767254 C96.4404203,53.5724113 96.5824336,52.8014821 96.927323,51.8885396 C97.2113495,51.137898 97.7794026,49.7583405 98.124292,49.007699 C98.590907,48.0136061 99.422699,47.5064158 99.422699,46.4311725 C99.422699,46.248584 99.3618362,46.1877211 99.2603982,46.1065707 C99.1183849,45.984845 98.854646,45.9442698 98.6517698,45.9442698 C98.2663053,45.9442698 97.8402654,46.0659955 97.6373893,46.4920353 C96.8867478,48.0541813 96.2984071,49.5148892 95.6694911,50.9958848 C95.5477655,51.2799113 95.466615,51.6248007 95.3246018,52.0102653 C95.0811504,52.700044 95,53.1463715 95,53.6535617 C95,53.9375883 95.0202876,54.2216148 95.1014381,54.5056413 C95.3246018,55.2562829 96.0143805,56.1083626 96.6230088,56.1083626 C97.5359513,56.1083626 98.2865929,55.5200219 98.7126327,55.1345573 L98.9207669,54.9092959 C98.9655837,55.0107576 99.018061,55.1125055 99.0778097,55.2157077 C99.1589601,55.357721 100.112478,55.8446236 100.51823,55.8446236 C100.680531,55.8446236 100.923982,55.824336 101.126858,55.7026104 C103.115044,54.5056413 104.697478,52.5174555 106.320487,50.6307078 C106.442212,50.4886945 106.482787,50.4481193 106.523363,50.4481193 C106.563938,50.4481193 106.563938,50.4684069 106.563938,50.4886945 C106.563938,50.5292697 106.097323,51.3813494 105.935022,51.9494025 C105.630708,53.0246458 105.407544,53.897013 105.407544,54.9519688 C105.407544,55.3780086 105.448119,55.8040484 105.52927,56.2706634 C105.549557,56.3923891 106.077035,56.656128 106.259624,56.656128 C106.766814,56.656128 106.705951,56.5141148 106.989978,56.2300882 C107.050841,56.1692254 107.071128,56.1489378 107.071128,56.0880749 C107.071128,55.9257741 106.908827,55.6823227 106.908827,54.9519688 C106.908827,54.2216148 107.233429,52.7406193 108.450686,49.3323007 L108.775287,48.4396459 C109.444779,46.5934733 110.986637,44.5444247 112.163318,42.6576769 C112.386482,42.3127876 112.447345,42.0490486 112.629933,41.7853097 C112.893672,41.3998451 113.055973,41.1361062 113.055973,40.6694911 C113.055973,40.3246018 112.325619,40 112.06188,40 C111.798141,40 111.716991,40.0811504 111.595265,40.2434513 C109.850531,42.5359513 108.978163,45.1124778 106.868252,47.4049778 C106.847964,47.4252654 106.807389,47.4252654 106.705951,47.4252654 C106.4625,47.2629645 106.016172,47.1615264 105.752433,47.0398008 C105.61042,46.9789379 105.407544,46.9383627 105.18438,46.9383627 C104.656902,46.9383627 104.027987,47.1209512 103.723672,47.3238273 C102.019513,48.4599335 100.416792,50.0423671 99.4429867,51.8885396 C99.0976098,52.5505119 98.8849347,53.0797825 98.7904796,53.5342775 Z M75.9603621,48.2001061 L53.1551066,48.2001061 L53.1551066,10.3158705 L63.6146599,20.8203502 L63.6146599,37.5471841 L75.9603621,37.5471841 L75.9603621,48.2001061 Z M106.03646,48.3382078 C106.03646,48.6830972 105.853871,48.74396 105.61042,49.0685618 C104.291726,50.8335839 102.790442,52.6594688 101.045708,54.0187387 C100.863119,54.160752 100.741394,54.160752 100.619668,54.26219 C100.538518,54.3230529 100.497942,54.3433405 100.416792,54.3433405 C100.315354,54.3433405 100.274779,54.0796015 100.274779,53.8767254 C100.274779,53.8158626 100.315354,53.6738493 100.335642,53.6129865 C101.167434,51.3813494 103.094756,49.2308627 105.062655,48.2367698 C105.224956,48.1556193 105.366969,48.1353317 105.569845,48.1353317 C105.894447,48.1353317 106.03646,48.2164822 106.03646,48.3382078 Z M101.289159,41.8055973 C101.147146,41.6432964 100.761681,41.5418584 100.43708,41.5418584 C100.01104,41.5418584 99.6458628,41.6432964 99.4429867,41.8867478 C99.2603982,42.1099115 99.1792477,42.4548008 99.1792477,42.7388274 C99.1792477,42.9619911 99.2198229,43.22573 99.321261,43.4286061 C99.422699,43.6111946 99.7270132,43.8343583 100.132765,43.8343583 C100.579093,43.8343583 101.065995,43.2865929 101.431172,42.8402654 C101.512323,42.7388274 101.532611,42.5968141 101.532611,42.4750885 C101.532611,42.2722124 101.492035,42.028761 101.289159,41.8055973 Z M115.084734,47.7498671 C114.820995,48.1556193 114.902146,48.2164822 114.597832,48.5816591 C113.684889,49.6771901 112.690796,50.7930087 111.493827,51.7059511 C111.432964,51.7465263 111.392389,51.766814 111.351814,51.766814 C111.331526,51.766814 111.311239,51.7465263 111.311239,51.6653759 C111.757566,49.8597786 113.177699,48.1961946 114.496393,47.0195132 C114.69927,46.8369247 114.678982,46.8977875 114.902146,46.7557742 C115.084734,46.6340486 115.20646,46.5731857 115.328185,46.5731857 C115.449911,46.5731857 115.449911,46.6543362 115.449911,46.8166371 C115.449911,47.181814 115.28761,47.445553 115.084734,47.7498671 Z M124.133008,47.2629645 C124.477898,47.2629645 124.599623,47.5267034 124.599623,47.6687167 C124.599623,47.7904423 124.559048,47.912168 124.498185,47.9730308 C124.275022,48.1961946 124.051858,48.4802211 123.909845,48.74396 C122.875177,50.671283 120.744977,52.0305529 118.85823,53.795575 C118.493053,54.1404644 118.026438,54.3636281 117.864137,54.3636281 C117.49896,54.3636281 117.417809,54.0593139 117.417809,53.8158626 C117.417809,53.2275219 118.0873,52.0305529 118.93938,50.9958848 C120.095774,49.5960397 121.597057,48.4802211 123.504092,47.4658406 C123.767831,47.3238273 124.072146,47.2629645 124.133008,47.2629645 Z M130.199004,45.6805309 C129.813539,45.6805309 128.981747,46.0457079 128.393407,46.9789379 C127.906504,47.7498671 127.663053,48.9062609 127.663053,49.4540264 C127.663053,49.8597786 128.02823,52.9029201 128.312256,54.2419024 C128.413694,54.7490927 128.413694,54.7896679 128.413694,54.8708183 C128.413694,54.9519688 128.332544,55.0331192 128.210818,55.0331192 C128.10938,55.0331192 128.007942,54.992544 127.805066,54.8099555 C127.196438,54.26219 126.952986,53.4912608 126.486371,52.8623449 C126.303783,52.6188936 126.121194,52.5783184 125.715442,52.5783184 C125.289402,52.5783184 124.985088,53.0246458 124.985088,53.32896 C124.985088,53.3898228 125.045951,53.5318361 125.106814,53.6332741 C125.776305,54.7490927 126.729822,55.8040484 128.068805,56.3518139 C128.170243,56.3923891 128.393407,56.4329643 128.575995,56.4329643 C129.12376,56.4329643 129.488937,56.0677873 129.854114,55.7026104 C129.935265,55.6214599 130.016415,55.4997342 130.016415,55.3374334 C130.016415,54.5056413 129.5498,52.233429 129.367212,50.7118582 C129.326637,50.4481193 129.225199,49.5351768 129.225199,49.4134512 C129.225199,49.1699998 129.245486,49.0279866 129.265774,48.8859733 C129.428075,47.9527432 130.361305,46.7963494 130.503318,46.7963494 C130.665619,46.7963494 130.868495,46.9383627 130.949645,47.080376 C131.030796,47.2223893 131.091659,47.4658406 131.091659,47.6281415 C131.091659,47.9730308 130.929358,48.2570574 130.746769,48.5613715 C130.706194,48.6222344 130.685906,48.6830972 130.685906,48.7236724 C130.685906,49.0279866 130.807632,49.2308627 130.990221,49.3728759 C131.132234,49.4946016 131.477123,49.6366149 131.700287,49.6366149 C131.801725,49.6366149 131.822013,49.6163273 131.984314,49.4134512 C132.26834,49.0482742 132.572654,48.5005087 132.572654,47.7295795 C132.572654,47.3238273 132.471216,46.715199 132.18719,46.4108848 C131.76115,45.9645574 131.314822,45.6805309 130.199004,45.6805309 Z"></path>
                            </g>
                        </g>
                    </g>
                </g>
            </g>
        </g>
    </g>
</svg>